<svg xmlns="http://www.w3.org/2000/svg" height="123.909" width="149.3" viewBox="0 0 149.3 123.909"><defs><clipPath id="a"><path d="M0 0h111.975v92.932H0z"/></clipPath></defs><g clip-path="url(#a)" transform="matrix(1.33333 0 0 -1.33333 0 123.909)"><path d="M0 49.354v42.361c0 .297.128.574.385.83.255.259.532.387.83.387h5.44c.34 0 .628-.128.863-.387.234-.256.352-.533.352-.83V73.221c1.962.768 3.86 1.15 5.696 1.15 3.753 0 6.804-1.289 9.15-3.868 2.346-2.582 3.52-5.772 3.52-9.566 0-3.712-1.184-6.879-3.552-9.504-2.367-2.622-5.278-3.933-8.734-3.933-1.579 0-3.071.317-4.479.959-1.408.64-2.412 1.278-3.008 1.917l-.896.961-.639-1.983c-.215-.81-.619-1.216-1.216-1.216H1.215c-.298 0-.575.128-.83.383-.257.255-.385.535-.385.833m7.615 9.214c.299-1.022.896-1.974 1.792-2.846.895-.874 2.089-1.312 3.583-1.312 1.663 0 3.05.628 4.159 1.885 1.109 1.259 1.664 2.807 1.664 4.642 0 1.832-.587 3.38-1.76 4.638-1.174 1.259-2.655 1.887-4.447 1.887-.94 0-1.825-.129-2.655-.384-.832-.256-1.419-.511-1.759-.767l-.577-.321zM34.683 82.82c1.237 0 2.292.426 3.167 1.28.874.853 1.312 1.898 1.312 3.136 0 1.235-.438 2.282-1.312 3.133-.875.856-1.93 1.282-3.167 1.282-1.196 0-2.22-.426-3.072-1.282-.854-.85-1.28-1.898-1.28-3.133 0-1.238.426-2.283 1.28-3.136.852-.854 1.876-1.28 3.072-1.28M37.433 76.642h-5.31c-.342 0-.63-.117-.865-.352a1.175 1.175 0 0 1-.352-.864V52.263c0-.3.128-.577.385-.832.256-.256.533-.384.831-.384h5.311c.342 0 .63.128.864.384.234.255.352.532.352.832v23.163c0 .34-.118.63-.352.864a1.173 1.173 0 0 1-.864.352M12.22 21.757c0 .937.161 1.823.48 2.656.32.832.725 1.514 1.216 2.048.49.531.97.991 1.44 1.374.468.384.874.662 1.216.833l.448.254c-1.28 1.45-1.92 3.456-1.92 6.018 0 3.027 1.077 5.64 3.23 7.836 2.155 2.198 4.79 3.296 7.903 3.296H37.88c.81 0 1.216-.404 1.216-1.217v-2.11c0-.597-.235-.959-.704-1.088l-3.583-1.15a6.79 6.79 0 0 0 .703-.673c.298-.32.683-1.034 1.152-2.145.47-1.108.704-2.346.704-3.709 0-2.647-1.014-4.983-3.04-7.008-2.026-2.028-4.66-3.04-7.903-3.04-.939 0-1.972.086-3.103.256-1.13.171-1.802.255-2.015.255-.51 0-1.037-.223-1.568-.673-.535-.445-.8-1.033-.8-1.757 0-.64.244-1.162.735-1.568.491-.406 1.098-.608 1.825-.608h8.19c3.03 0 5.546-.81 7.551-2.432 2.004-1.62 3.01-3.797 3.01-6.527 0-3.113-1.228-5.703-3.682-7.775C34.115 1.036 30.671 0 26.233 0c-4.35 0-7.613.874-9.789 2.623-2.176 1.751-3.263 3.8-3.263 6.145 0 2.517 1.28 4.541 3.84 6.08v.19a7.72 7.72 0 0 0-1.76.831c-.62.383-1.28 1.111-1.985 2.175-.703 1.07-1.056 2.304-1.056 3.713m8.32-11.583c0-1.108.511-2.015 1.535-2.719C23.1 6.752 24.462 6.4 26.17 6.4c1.792 0 3.232.375 4.32 1.12 1.086.747 1.63 1.718 1.63 2.91 0 .77-.362 1.484-1.087 2.145-.726.662-1.919.991-3.584.991-1.577 0-2.966-.084-4.158-.256-1.835-.596-2.752-1.642-2.752-3.135m2.688 27.74c-.855-.876-1.279-1.974-1.279-3.296 0-1.323.424-2.423 1.28-3.294.851-.876 1.918-1.313 3.197-1.313 1.323 0 2.39.427 3.2 1.281.81.852 1.216 1.96 1.216 3.326 0 1.363-.407 2.476-1.216 3.327-.81.855-1.877 1.28-3.2 1.28-1.279 0-2.346-.438-3.198-1.31M41.586 34.126c0 3.625 1.29 6.76 3.872 9.408 2.58 2.644 5.662 3.967 9.245 3.967 3.583 0 6.666-1.323 9.247-3.967 2.58-2.647 3.872-5.783 3.872-9.408 0-3.67-1.281-6.837-3.841-9.501-2.56-2.667-5.652-4-9.278-4-3.625 0-6.72 1.333-9.278 4-2.56 2.664-3.84 5.832-3.84 9.5m6.976 0c0-1.832.596-3.39 1.79-4.668 1.195-1.28 2.645-1.92 4.352-1.92 1.706 0 3.158.64 4.352 1.92 1.193 1.279 1.79 2.836 1.79 4.669 0 1.793-.597 3.319-1.79 4.577-1.194 1.257-2.646 1.885-4.352 1.885-1.707 0-3.157-.627-4.351-1.885-1.195-1.259-1.791-2.785-1.791-4.578M44.815 51.879h1.239l.73 1.789h2.987l.73-1.79h1.309l-2.958 7.015h-1.079zm3.467 5.425l1.02-2.488h-2.049zm6.556-5.425v2.618h.86l1.929-2.618h1.488l-2.187 2.858c.579.199 1.348.798 1.348 1.998 0 1.209-.629 2.158-2.538 2.158-.2 0-1.739-.02-2.128-.02v-6.994zm.84 5.866c1 0 1.3-.47 1.3-1.02 0-.72-.63-1.08-1.34-1.08h-.8v2.08c.33.01.61.02.84.02m9.964-4.268a2.722 2.722 0 0 0-1.659-.56c-1.429 0-2.418 1-2.418 2.459 0 1.519.979 2.459 2.278 2.459.7 0 1.159-.19 1.579-.47l.55.909c-.46.419-1.219.709-2.129.709-2.308 0-3.576-1.598-3.576-3.607 0-2.18 1.468-3.607 3.606-3.607.91 0 1.799.32 2.239.789zm6.81-1.598h1.218v6.984h-1.218v-2.848h-3.199v2.848h-1.228v-6.984h1.228v2.988h3.199zm3.935 0h1.228v6.984h-1.228zm3.103 5.836h2.268v-5.836h1.228v5.836h2.268v1.148H79.49zm7.572-5.836h4.146v1.148H88.29v1.81h2.518v1.148H88.29v1.73h2.818v1.148h-4.046zm11.275 1.598c-.48-.37-1.07-.56-1.659-.56-1.429 0-2.418 1-2.418 2.459 0 1.519.979 2.459 2.278 2.459.699 0 1.159-.19 1.579-.47l.549.909c-.459.419-1.219.709-2.128.709-2.308 0-3.576-1.598-3.576-3.607 0-2.18 1.467-3.607 3.606-3.607.909 0 1.799.32 2.238.789zm1.823 4.238h2.269v-5.836h1.228v5.836h2.268v1.148h-5.765zm10.518-3.978c0-.53-.44-.82-1.02-.82-.54 0-1.2.26-1.609.79l-.699-.84c.34-.71 1.388-1.098 2.288-1.098 1.309 0 2.337.799 2.337 1.978 0 2.329-3.167 1.869-3.167 3.318 0 .46.37.77.98.77.56 0 .9-.19 1.239-.52l.659.919c-.419.459-1.138.749-1.998.749-1.359 0-2.178-.88-2.178-1.928 0-2.28 3.168-1.94 3.168-3.318" fill="#4b2659"/></g></svg>