<svg xmlns="http://www.w3.org/2000/svg">
	<symbol id="logo" height="317.48" width="283.463" viewBox="0 0 317.48 283.463">
		<g fill="currentcolor"><path d="M69.389 128.557c7.326-8.118 10.985-17.921 10.985-29.404 0-11.741-3.627-21.611-10.888-29.6-7.259-7.981-16.696-11.97-28.313-11.97-5.673 0-11.548 1.188-17.615 3.561V3.926c0-.916-.366-1.779-1.091-2.565-.728-.8-1.616-1.196-2.672-1.196H2.965c-.92 0-1.777.396-2.568 1.196-.796.785-1.193 1.649-1.193 2.565v131.065c0 .92.397 1.781 1.192 2.573.791.791 1.648 1.188 2.568 1.188h7.725c1.846 0 3.102-1.256 3.763-3.762l1.979-6.136 2.771 2.973c1.845 1.974 4.951 3.954 9.306 5.933 4.356 1.985 8.97 2.968 13.859 2.968 10.692.001 19.699-4.057 27.022-12.171zm-41.077-13.27c-2.774-2.7-4.624-5.645-5.544-8.809V83.52l1.782-.997c1.055-.786 2.869-1.577 5.441-2.372 2.574-.791 5.314-1.185 8.217-1.185 5.545 0 10.124 1.943 13.761 5.835 3.629 3.892 5.441 8.682 5.441 14.352 0 5.68-1.714 10.465-5.146 14.36-3.431 3.892-7.721 5.836-12.867 5.836-4.624 0-8.319-1.354-11.085-4.062zM136.136 124.472h2.806c.352 0 .569-.151.706-.49l1.651-3.64h9.967l1.648 3.631c.169.338.395.5.709.5h2.808c.196 0 .277-.08.326-.15.049-.07.086-.161.001-.329l-9.942-21.722c-.068-.151-.162-.212-.323-.212h-.323c-.16 0-.256.063-.322.211l-10.034 21.716c-.089.176-.053.268-.006.336.048.069.129.149.328.149zm9.906-14.809h.419l3.453 7.594h-7.253l3.381-7.594zM163.5 124.473h2.969c.1 0 .182-.036.254-.114a.368.368 0 00.11-.251v-8.476h3.983l4.357 8.687c.06.105.149.154.297.154h3.386c.173 0 .277-.055.353-.182.07-.127.066-.241-.015-.379l-4.557-8.447.258-.104c1.396-.564 2.526-1.411 3.36-2.516a6.105 6.105 0 001.26-3.771c0-1.837-.67-3.429-1.991-4.728-1.324-1.3-2.937-1.96-4.794-1.96h-9.229a.335.335 0 00-.257.102.338.338 0 00-.107.262v21.358a.35.35 0 00.363.365zm3.37-18.712h5.506c.923 0 1.735.332 2.417.987.682.662 1.029 1.465 1.029 2.389 0 .963-.346 1.803-1.023 2.496-.684.692-1.498 1.042-2.423 1.042h-5.506v-6.914zM197.18 124.795c2.997 0 5.577-1.029 7.668-3.059a.397.397 0 00.134-.273c.004-.057-.002-.144-.105-.245l-2.003-2.067c-.181-.181-.347-.092-.456.009-1.56 1.268-3.274 1.905-5.108 1.905-2.104 0-3.896-.764-5.327-2.272-1.424-1.504-2.146-3.331-2.146-5.43 0-2.123.717-3.966 2.13-5.478 1.419-1.518 3.205-2.289 5.31-2.289 1.924 0 3.652.662 5.135 1.966.073.072.166.146.247.146.077 0 .156-.07.211-.128l1.975-2.039c.102-.101.149-.189.149-.266-.004-.103-.097-.209-.174-.281-2.178-1.947-4.75-2.936-7.64-2.936-3.141 0-5.855 1.121-8.068 3.33-2.211 2.212-3.331 4.928-3.331 8.07s1.12 5.846 3.329 8.034c2.21 2.191 4.926 3.301 8.07 3.303zM230.372 102.383h-2.968a.342.342 0 00-.259.102.35.35 0 00-.107.262v8.798h-11.012v-8.798a.358.358 0 00-.107-.263.341.341 0 00-.259-.101h-2.999a.312.312 0 00-.249.109c-.081.086-.115.165-.115.256v21.358c0 .09.035.169.11.251.071.08.15.114.254.114h2.999a.357.357 0 00.366-.365v-9.152h11.012v9.152c0 .106.034.188.105.26.07.072.151.104.261.104h2.968c.081 0 .161-.039.242-.12.084-.083.124-.163.124-.246v-21.358c0-.084-.04-.163-.122-.242-.082-.081-.161-.121-.244-.121zM243.39 102.383h-3a.319.319 0 00-.253.112.369.369 0 00-.114.252v21.358c0 .086.038.169.115.254a.318.318 0 00.252.111h3c.082 0 .164-.04.245-.122.08-.082.121-.163.121-.244v-21.358c0-.083-.04-.162-.121-.245-.109-.105-.193-.118-.245-.118zM264.797 102.384h-14.101a.342.342 0 00-.259.103.347.347 0 00-.105.261v2.646a.35.35 0 00.107.263.335.335 0 00.257.102h5.185v18.348c0 .089.035.168.112.251a.323.323 0 00.256.114h2.997c.054 0 .137-.013.247-.122.079-.082.119-.163.119-.244v-18.348h5.185a.341.341 0 00.258-.104.35.35 0 00.106-.261v-2.646a.353.353 0 00-.364-.363zM285.234 102.384H272.1a.35.35 0 00-.262.104.344.344 0 00-.103.259v21.358c0 .108.032.188.103.258a.344.344 0 00.262.105h13.134a.34.34 0 00.258-.105.343.343 0 00.103-.26v-2.646a.34.34 0 00-.104-.258.342.342 0 00-.257-.106h-9.803v-6.141h8.219a.356.356 0 00.366-.364v-2.678a.379.379 0 00-.112-.254.323.323 0 00-.253-.111h-8.219v-5.787h9.803a.348.348 0 00.259-.105.349.349 0 00.102-.259v-2.646a.353.353 0 00-.362-.364zM303.355 105.598c1.925 0 3.652.662 5.135 1.966.074.072.165.146.247.146.077 0 .159-.07.214-.129l1.972-2.039c.102-.101.149-.189.148-.266-.003-.103-.096-.209-.174-.281-2.177-1.947-4.748-2.936-7.639-2.936-3.141 0-5.854 1.121-8.064 3.33s-3.331 4.925-3.331 8.07 1.121 5.849 3.33 8.034c2.209 2.188 4.923 3.298 8.067 3.301 2.997 0 5.577-1.029 7.67-3.059a.42.42 0 00.135-.275c.002-.031.009-.125-.108-.245l-2.002-2.063c-.179-.181-.349-.092-.46.009-1.558 1.268-3.27 1.905-5.103 1.905-2.104 0-3.896-.764-5.327-2.272-1.428-1.505-2.151-3.332-2.151-5.43 0-2.122.719-3.964 2.133-5.478 1.421-1.518 3.207-2.288 5.308-2.288zM331.184 102.384h-14.101a.352.352 0 00-.363.364v2.646c0 .108.031.189.104.263a.347.347 0 00.258.102h5.184v18.348c0 .084.038.167.116.254a.321.321 0 00.255.111h2.996c.053 0 .137-.013.248-.123.078-.081.119-.161.119-.243v-18.348h5.183a.352.352 0 00.262-.105.348.348 0 00.106-.26v-2.646a.352.352 0 00-.108-.261.348.348 0 00-.259-.102zM350.991 116.069a5.539 5.539 0 00-1.59-1.977 15.688 15.688 0 00-2.064-1.398 20.3 20.3 0 00-2.373-1.099c-1.381-.556-2.356-1.111-2.982-1.696-.651-.604-.983-1.326-.983-2.147 0-.632.289-1.216.858-1.735.556-.513 1.306-.773 2.23-.773 1.152 0 2.661.593 4.614 1.812.299.187.525.083.789-.315l1.226-1.839c.074-.102.093-.23.062-.4-.03-.158-.088-.264-.171-.313-1.889-1.417-4.009-2.128-6.325-2.128-2.288 0-4.048.605-5.231 1.799-1.184 1.192-1.784 2.588-1.784 4.149 0 1.644.539 3.005 1.604 4.047 1.092 1.071 2.541 1.977 4.307 2.692 1.419.566 2.488 1.173 3.174 1.805.717.66 1.078 1.432 1.078 2.294 0 .761-.31 1.416-.922 1.946-.791.682-1.876.937-3.114.702a6.092 6.092 0 01-.839-.221 8.92 8.92 0 01-.823-.312 7.836 7.836 0 01-.767-.366 31.77 31.77 0 01-1.188-.699 4.753 4.753 0 01-.396-.274l-.186-.118c-.02-.02-.079-.08-.238-.08a.725.725 0 00-.101.007.48.48 0 00-.366.252l-1.162 1.999c-.134.243-.098.444.127.667.319.302.72.614 1.187.926.456.298 1.235.63 2.313.985 1.072.355 2.223.536 3.423.536 2.119 0 3.865-.612 5.188-1.821 1.316-1.208 1.984-2.661 1.984-4.319-.001-.95-.189-1.82-.559-2.588zM107.106 27.32c3.829 0 7.094-1.317 9.802-3.963 2.7-2.636 4.061-5.872 4.061-9.699 0-3.825-1.359-7.061-4.061-9.695C114.2 1.316 110.935 0 107.106 0c-3.697 0-6.866 1.316-9.503 3.963-2.64 2.636-3.958 5.871-3.958 9.695 0 3.828 1.317 7.063 3.958 9.699 2.637 2.645 5.805 3.963 9.503 3.963zM99.185 46.435c-1.056 0-1.947.362-2.669 1.091-.728.72-1.092 1.617-1.092 2.671v70.796c0 .921.396 1.783 1.19 2.573.791.79 1.645 1.186 2.57 1.186h16.434c1.054 0 1.947-.396 2.67-1.186.727-.79 1.091-1.652 1.091-2.573V50.196c0-1.054-.364-1.951-1.091-2.671-.722-.729-1.616-1.091-2.669-1.091H99.185zM119.337 229.61c-6.204-5.018-13.991-7.525-23.362-7.525h-25.34c-2.247 0-4.126-.621-5.643-1.881-1.518-1.254-2.274-2.871-2.274-4.848 0-2.242.824-4.061 2.475-5.441 1.648-1.385 3.268-2.084 4.852-2.084.658 0 2.736.266 6.234.793 3.497.527 6.696.789 9.601.789 10.031 0 18.18-3.127 24.452-9.4 6.267-6.268 9.403-13.488 9.403-21.684 0-4.217-.367-8.186-1.821-11.617-1.45-3.436-2.999-5.5-3.92-6.496-.921-.996-1.653-1.676-2.176-2.078l11.085-3.559c1.452-.398 2.181-1.523 2.181-3.365v-6.531c0-2.512-1.258-3.762-3.768-3.762h-36.03c-9.637 0-17.787 3.391-24.448 10.195-6.666 6.791-9.994 14.877-9.994 24.242 0 7.924 1.976 14.131 5.937 18.613l-1.386.791c-1.06.525-2.311 1.389-3.76 2.578-1.457 1.184-2.942 2.607-4.458 4.254-1.52 1.646-2.772 3.758-3.758 6.336-.99 2.574-1.485 5.316-1.485 8.217 0 4.355 1.088 8.18 3.262 11.482 2.18 3.297 4.222 5.545 6.138 6.732 1.91 1.184 3.727 2.037 5.445 2.572v.59c-7.92 4.754-11.878 11.025-11.878 18.809 0 7.26 3.368 13.598 10.097 19.012 6.731 5.41 16.825 8.119 30.288 8.119 13.727 0 24.381-3.209 31.976-9.607 7.587-6.408 11.382-14.418 11.382-24.051-.001-8.445-3.106-15.179-9.307-20.195zm-43.352-63.451c2.635-2.707 5.934-4.061 9.895-4.062 4.089 0 7.39 1.316 9.898 3.967 2.505 2.631 3.759 6.066 3.759 10.285 0 4.234-1.254 7.658-3.759 10.295-2.507 2.646-5.807 3.963-9.898 3.963-3.96 0-7.259-1.352-9.895-4.061-2.646-2.697-3.958-6.1-3.958-10.195 0-4.084 1.313-7.485 3.958-10.192zm22.465 94.043c-3.362 2.301-7.819 3.459-13.363 3.459-5.28 0-9.498-1.086-12.668-3.268-3.165-2.18-4.754-4.984-4.754-8.408 0-4.623 2.84-7.859 8.518-9.705 3.692-.527 7.983-.789 12.863-.789 5.15 0 8.842 1.018 11.087 3.068 2.244 2.047 3.365 4.254 3.365 6.631 0 3.696-1.681 6.698-5.048 9.012zM199.142 152.005c-7.984-8.18-17.523-12.271-28.609-12.271-11.085 0-20.625 4.092-28.608 12.271-7.989 8.189-11.979 17.889-11.979 29.104 0 .047.003.092.003.138s-.003.09-.003.136c0 11.354 3.959 21.15 11.878 29.398 7.919 8.252 17.488 12.373 28.708 12.373 11.216 0 20.785-4.121 28.707-12.373 7.918-8.248 11.881-18.045 11.881-29.398 0-.046-.003-.09-.003-.136s.003-.091.003-.138c.001-11.215-3.995-20.917-11.978-29.104zm-15.146 43.555c-3.694 3.963-8.186 5.938-13.463 5.938-5.281 0-9.768-1.975-13.463-5.938-3.667-3.922-5.507-8.694-5.537-14.312.03-5.486 1.869-10.161 5.537-14.02 3.696-3.896 8.182-5.836 13.463-5.836 5.277 0 9.769 1.941 13.463 5.836 3.665 3.858 5.505 8.533 5.535 14.02-.03 5.617-1.87 10.39-5.535 14.312z"/></g>
	</symbol>

	<symbol id="logo-old" height="317.48" width="283.463" viewBox="0 0 317.48 283.463">
		<path fill="currentcolor" d="M0 134.991V3.927c0-.917.396-1.78 1.192-2.566C1.983.561 2.84.165 3.76.165h16.831c1.056 0 1.944.396 2.672 1.196.725.786 1.091 1.649 1.091 2.565v57.218c6.067-2.373 11.942-3.562 17.616-3.562 11.617 0 21.055 3.988 28.314 11.971 7.261 7.987 10.889 17.857 10.889 29.6 0 11.483-3.659 21.286-10.985 29.404-7.324 8.113-16.331 12.172-27.022 12.172-4.89 0-9.503-.982-13.859-2.968-4.354-1.979-7.462-3.959-9.307-5.934l-2.771-2.973-1.979 6.136c-.661 2.506-1.917 3.762-3.764 3.762H3.76c-.92 0-1.777-.396-2.568-1.188C.397 136.773 0 135.911 0 134.991zm23.564-28.512c.921 3.164 2.771 6.107 5.545 8.809 2.767 2.708 6.461 4.062 11.086 4.062 5.146 0 9.438-1.944 12.867-5.836 3.433-3.896 5.146-8.682 5.146-14.36 0-5.67-1.812-10.46-5.441-14.352-3.638-3.893-8.217-5.836-13.762-5.836-2.903 0-5.645.395-8.218 1.186-2.572.795-4.388 1.586-5.441 2.372l-1.782.997v22.958zM135.673 122.753c-.199 0-.351-.071-.45-.218-.099-.146-.103-.309-.012-.489l8.458-18.306c.09-.2.246-.301.463-.301h.272c.218 0 .37.101.463.301l8.378 18.306c.091.183.086.346-.017.489-.1.146-.249.218-.446.218h-2.367c-.346 0-.607-.182-.787-.544l-1.335-2.938h-8.133l-1.332 2.938c-.146.362-.408.544-.789.544h-2.366zm5.822-6.501h5.468l-2.721-5.982h-.082l-2.665 5.982zM158.225 122.236V104.23a.49.49 0 01.15-.367.49.49 0 01.366-.148h7.778c1.632 0 3.026.571 4.188 1.714s1.741 2.521 1.741 4.135a5.33 5.33 0 01-1.104 3.306c-.733.971-1.71 1.698-2.922 2.188l3.726 6.907a.502.502 0 01.015.531c-.101.172-.259.258-.479.258h-2.854a.465.465 0 01-.438-.245l-3.616-7.208h-3.021v6.938a.52.52 0 01-.148.354.485.485 0 01-.365.163h-2.504a.49.49 0 01-.365-.148.517.517 0 01-.148-.372zm3.565-9.846h4.433c.728 0 1.354-.271 1.894-.815a2.706 2.706 0 00.803-1.958c0-.727-.271-1.348-.803-1.863a2.631 2.631 0 00-1.894-.773h-4.433v5.409zM180.182 120.183c-1.913-1.896-2.869-4.202-2.869-6.922 0-2.722.956-5.037 2.869-6.951 1.915-1.912 4.23-2.869 6.95-2.869 2.502 0 4.696.845 6.582 2.53.272.254.282.507.028.761l-1.66 1.715c-.218.234-.443.234-.68 0-1.216-1.069-2.612-1.604-4.189-1.604-1.722 0-3.163.621-4.323 1.863-1.161 1.241-1.74 2.733-1.74 4.476 0 1.723.585 3.199 1.754 4.434 1.17 1.233 2.616 1.851 4.34 1.851 1.505 0 2.893-.519 4.161-1.551.234-.218.463-.218.68 0l1.687 1.739a.465.465 0 01.15.367.558.558 0 01-.177.368c-1.812 1.759-4.019 2.638-6.61 2.638-2.721-.004-5.038-.951-6.953-2.845zM199.667 122.236V104.23c0-.126.049-.245.149-.354a.481.481 0 01.367-.163h2.528a.504.504 0 01.516.515v7.208h8.865v-7.208a.5.5 0 01.149-.367.496.496 0 01.367-.148h2.502c.126 0 .244.055.354.163.11.108.164.229.164.354v18.006a.495.495 0 01-.164.354.496.496 0 01-.354.163h-2.502a.497.497 0 01-.367-.148.497.497 0 01-.149-.367v-7.507h-8.865v7.507a.509.509 0 01-.516.515h-2.528a.474.474 0 01-.367-.163.513.513 0 01-.149-.354zM223.044 122.236V104.23c0-.126.05-.245.148-.354a.486.486 0 01.367-.163h2.529c.126 0 .244.055.354.163a.5.5 0 01.164.354v18.006a.503.503 0 01-.164.354.5.5 0 01-.354.163h-2.529a.477.477 0 01-.367-.163.525.525 0 01-.148-.354zM236.41 122.236v-15.259h-4.161a.495.495 0 01-.367-.149.502.502 0 01-.148-.367v-2.229a.508.508 0 01.515-.515h11.887a.505.505 0 01.516.515v2.229a.509.509 0 01-.516.516h-4.161v15.259a.501.501 0 01-.163.354.498.498 0 01-.354.163h-2.527a.475.475 0 01-.367-.163.506.506 0 01-.154-.354zM249.778 122.236V104.23a.503.503 0 01.515-.515h11.07a.506.506 0 01.513.515v2.229a.503.503 0 01-.513.516h-8.054v4.461h6.719a.48.48 0 01.368.162.517.517 0 01.148.354v2.258a.508.508 0 01-.516.516h-6.719v4.759h8.054c.144 0 .267.052.366.151a.49.49 0 01.147.364v2.23a.503.503 0 01-.513.515h-11.069a.502.502 0 01-.368-.148.476.476 0 01-.148-.361zM269.614 120.183c-1.913-1.896-2.868-4.202-2.868-6.922 0-2.722.955-5.037 2.868-6.951 1.913-1.912 4.229-2.869 6.947-2.869 2.505 0 4.696.845 6.582 2.53.274.254.282.507.029.761l-1.66 1.715c-.217.234-.443.234-.68 0-1.217-1.069-2.612-1.604-4.189-1.604-1.721 0-3.162.621-4.323 1.863-1.16 1.241-1.74 2.733-1.74 4.476 0 1.723.586 3.199 1.755 4.434 1.171 1.233 2.614 1.851 4.34 1.851 1.504 0 2.892-.519 4.16-1.551.234-.218.463-.218.68 0l1.688 1.739a.467.467 0 01.149.367.553.553 0 01-.177.368c-1.812 1.759-4.018 2.638-6.611 2.638-2.722-.004-5.037-.951-6.95-2.845zM292.378 122.236v-15.259h-4.161a.5.5 0 01-.514-.516v-2.229a.502.502 0 01.514-.515h11.886a.512.512 0 01.519.515v2.229a.506.506 0 01-.15.367.5.5 0 01-.369.149h-4.159v15.259a.505.505 0 01-.163.354.5.5 0 01-.354.163H292.9a.481.481 0 01-.369-.163.513.513 0 01-.153-.354zM305.239 120.903c-.254-.254-.3-.524-.138-.815l.979-1.688a.615.615 0 01.463-.312c.198-.024.354.016.461.124l.137.081c.092.072.195.146.313.219.116.072.267.162.446.271.183.107.363.214.546.312.182.1.391.198.627.299.232.101.461.187.681.258.215.074.44.134.678.179s.465.066.682.066c.707 0 1.297-.204 1.769-.611s.706-.901.706-1.481c0-.671-.28-1.265-.842-1.78-.562-.517-1.433-1.011-2.612-1.481-1.521-.615-2.756-1.389-3.698-2.312-.941-.924-1.414-2.11-1.414-3.562 0-1.377.521-2.594 1.564-3.645 1.043-1.052 2.562-1.579 4.558-1.579 2.011 0 3.823.608 5.438 1.823.125.072.206.208.244.406.035.2.008.363-.083.49l-1.032 1.551c-.29.436-.606.543-.951.326-1.597-.997-2.856-1.496-3.779-1.496-.728 0-1.308.199-1.74.599-.438.399-.653.834-.653 1.308 0 .635.254 1.188.763 1.657.507.474 1.323.936 2.447 1.389.778.309 1.454.62 2.024.938.571.315 1.161.717 1.77 1.196a4.888 4.888 0 011.399 1.74c.326.679.49 1.438.49 2.271 0 1.47-.582 2.732-1.74 3.796-1.162 1.062-2.667 1.59-4.516 1.59a9.313 9.313 0 01-2.951-.462c-.936-.309-1.603-.594-2.001-.855a8.22 8.22 0 01-1.035-.81zM107.907 27.321c3.828 0 7.094-1.317 9.803-3.963 2.7-2.636 4.061-5.872 4.061-9.699 0-3.825-1.358-7.061-4.061-9.695C115.001 1.317 111.736 0 107.907 0c-3.697 0-6.866 1.316-9.505 3.963-2.641 2.637-3.958 5.871-3.958 9.695 0 3.828 1.317 7.063 3.958 9.699 2.639 2.645 5.807 3.964 9.505 3.964zM116.42 46.435H99.985c-1.056 0-1.946.361-2.67 1.091-.728.72-1.092 1.617-1.092 2.671v70.796c0 .921.396 1.783 1.19 2.573.791.79 1.646 1.186 2.569 1.186h16.436c1.054 0 1.946-.396 2.671-1.186.727-.79 1.091-1.652 1.091-2.573V50.197c0-1.054-.364-1.951-1.091-2.671-.721-.729-1.616-1.091-2.669-1.091zM42.732 216.147c0-2.9.495-5.644 1.485-8.217.986-2.578 2.238-4.688 3.759-6.336 1.517-1.646 3.001-3.07 4.458-4.255 1.449-1.188 2.7-2.052 3.76-2.577l1.387-.791c-3.961-4.482-5.938-10.688-5.938-18.613 0-9.365 3.328-17.45 9.994-24.241 6.662-6.806 14.812-10.195 24.449-10.195h36.031c2.51 0 3.768 1.25 3.768 3.763v6.53c0 1.843-.729 2.968-2.181 3.365l-11.086 3.56c.521.401 1.255 1.082 2.176 2.077.922.996 2.471 3.062 3.921 6.496 1.454 3.433 1.821 7.399 1.821 11.616 0 8.195-3.138 15.416-9.403 21.686-6.272 6.271-14.422 9.398-24.453 9.398-2.905 0-6.104-.262-9.602-.789-3.498-.525-5.576-.793-6.234-.793-1.584 0-3.204.699-4.853 2.084-1.65 1.382-2.476 3.199-2.476 5.441 0 1.977.757 3.594 2.274 4.848 1.517 1.261 3.396 1.882 5.644 1.882h25.341c9.371 0 17.159 2.509 23.363 7.524 6.201 5.017 9.307 11.75 9.307 20.195 0 9.633-3.796 17.643-11.383 24.051-7.595 6.397-18.25 9.606-31.978 9.606-13.463 0-23.559-2.709-30.289-8.118-6.729-5.414-10.099-11.753-10.099-19.013 0-7.783 3.959-14.054 11.88-18.808v-.59c-1.72-.535-3.535-1.39-5.445-2.572-1.916-1.188-3.958-3.436-6.139-6.733-2.171-3.302-3.259-7.125-3.259-11.481zm25.733 35.838c0 3.424 1.589 6.229 4.754 8.408 3.171 2.182 7.389 3.268 12.669 3.268 5.545 0 10.002-1.157 13.364-3.459 3.366-2.312 5.048-5.314 5.048-9.012 0-2.377-1.121-4.584-3.365-6.631-2.245-2.052-5.938-3.068-11.088-3.068-4.881 0-9.172.263-12.864.789-5.679 1.846-8.518 5.082-8.518 9.705zm8.32-85.827c-2.646 2.707-3.958 6.107-3.958 10.191 0 4.096 1.312 7.498 3.958 10.194 2.637 2.709 5.936 4.062 9.896 4.062 4.092 0 7.392-1.317 9.898-3.963 2.506-2.638 3.76-6.062 3.76-10.295 0-4.22-1.254-7.654-3.76-10.285-2.509-2.65-5.81-3.967-9.898-3.967-3.962.004-7.26 1.356-9.896 4.063zM130.748 181.108c0-11.215 3.989-20.914 11.979-29.104 7.983-8.18 17.522-12.271 28.606-12.271 11.086 0 20.625 4.091 28.609 12.271 7.982 8.188 11.979 17.89 11.979 29.104 0 11.354-3.963 21.152-11.88 29.399-7.922 8.253-17.492 12.371-28.708 12.371-11.221 0-20.788-4.118-28.707-12.371-7.919-8.246-11.878-18.045-11.878-29.399zm21.581 0c0 5.68 1.846 10.496 5.543 14.451 3.694 3.963 8.182 5.938 13.462 5.938 5.276 0 9.769-1.975 13.463-5.938 3.695-3.955 5.541-8.771 5.541-14.451 0-5.545-1.846-10.264-5.541-14.154-3.694-3.896-8.187-5.836-13.463-5.836-5.28 0-9.768 1.939-13.462 5.836-3.698 3.891-5.543 8.609-5.543 14.154z"/><path fill="currentcolor" d="M130.748 181.382c0-11.215 3.989-20.913 11.979-29.104 7.983-8.182 17.522-12.271 28.606-12.271 11.086 0 20.625 4.089 28.609 12.271 7.982 8.188 11.979 17.89 11.979 29.104 0 11.354-3.963 21.149-11.88 29.397-7.922 8.252-17.492 12.373-28.708 12.373-11.221 0-20.788-4.121-28.707-12.373-7.919-8.248-11.878-18.044-11.878-29.397zm21.581 0c0 5.679 1.846 10.494 5.543 14.448 3.694 3.966 8.182 5.938 13.462 5.938 5.276 0 9.769-1.974 13.463-5.938 3.695-3.954 5.541-8.771 5.541-14.448 0-5.545-1.846-10.265-5.541-14.153-3.694-3.896-8.187-5.836-13.463-5.836-5.28 0-9.768 1.938-13.462 5.836-3.698 3.888-5.543 8.608-5.543 14.153z"/>
	</symbol>


	<symbol id="icon-inst" width="271.528" height="274.05" viewBox="0 0 271.528 274.05">
		<path fill="none" pointer-events="none" d="M0 0h271.528v274.05H0z"/><defs><clipPath id="a"><path d="M0 28h144.072V0H0z"/></clipPath></defs><g clip-path="url(#a)" transform="matrix(9.71734 0 0 -9.71734 1.199 272.604)" fill="currentcolor"><path d="M13.802 27.802c-3.75 0-4.22-.016-5.691-.083-1.47-.067-2.472-.3-3.35-.642a6.75 6.75 0 0 1-2.444-1.591A6.775 6.775 0 0 1 .724 23.04c-.34-.878-.574-1.881-.641-3.35C.016 18.219 0 17.749 0 14c0-3.748.016-4.22.083-5.69.067-1.47.3-2.472.64-3.351a6.755 6.755 0 0 1 1.594-2.444A6.765 6.765 0 0 1 4.76.923C5.639.582 6.64.348 8.11.28 9.583.214 10.053.198 13.8.198c3.749 0 4.219.016 5.69.083 1.47.067 2.474.3 3.352.642a6.782 6.782 0 0 1 2.444 1.592 6.765 6.765 0 0 1 1.592 2.444c.34.879.574 1.88.642 3.35.067 1.472.082 1.943.082 5.69 0 3.75-.015 4.22-.082 5.692-.068 1.469-.301 2.472-.642 3.35a6.786 6.786 0 0 1-1.592 2.445 6.766 6.766 0 0 1-2.444 1.59c-.878.343-1.882.576-3.351.643-1.472.067-1.942.083-5.69.083m0-2.487c3.685 0 4.122-.014 5.577-.08 1.346-.061 2.076-.287 2.562-.475a4.283 4.283 0 0 0 1.588-1.033 4.297 4.297 0 0 0 1.032-1.587c.189-.486.413-1.217.476-2.563.066-1.455.08-1.891.08-5.577 0-3.685-.014-4.121-.08-5.577-.063-1.346-.287-2.076-.476-2.562a4.281 4.281 0 0 0-1.032-1.587A4.273 4.273 0 0 0 21.94 3.24c-.486-.188-1.216-.414-2.562-.474-1.455-.067-1.891-.081-5.577-.081s-4.122.014-5.577.08c-1.346.06-2.077.287-2.563.475a4.277 4.277 0 0 0-1.587 1.034A4.271 4.271 0 0 0 3.042 5.86c-.188.486-.413 1.216-.475 2.562-.066 1.456-.08 1.892-.08 5.577 0 3.686.014 4.122.08 5.577.062 1.346.287 2.077.475 2.563.25.644.55 1.104 1.033 1.587.483.483.943.782 1.587 1.033.486.188 1.217.414 2.563.475 1.455.066 1.89.08 5.577.08"/><path d="M13.802 9.4a4.601 4.601 0 1 0 0 9.202 4.601 4.601 0 0 0 0-9.203m0 11.688A7.087 7.087 0 1 1 13.8 6.913a7.087 7.087 0 0 1 .002 14.174m9.024.28a1.656 1.656 0 1 0-3.313 0 1.656 1.656 0 0 0 3.313 0M68.606 0v13.138h-3.474v4.731h3.474v4.04c0 3.175 2.052 6.091 6.78 6.091 1.915 0 3.331-.184 3.331-.184l-.11-4.417s-1.445.014-3.02.014c-1.706 0-1.98-.786-1.98-2.09v-3.454h5.134l-.223-4.731h-4.91V0zm61.466 28c-7.732 0-14-6.268-14-14 0-5.932 3.69-10.997 8.898-13.037-.123 1.107-.233 2.807.048 4.016.255 1.093 1.642 6.959 1.642 6.959s-.418.838-.418 2.079c0 1.946 1.127 3.4 2.532 3.4 1.194 0 1.772-.897 1.772-1.972 0-1.202-.765-2.998-1.16-4.662-.33-1.393.7-2.529 2.074-2.529 2.487 0 4.401 2.623 4.401 6.41 0 3.353-2.409 5.696-5.849 5.696-3.983 0-6.32-2.988-6.32-6.076 0-1.202.462-2.493 1.041-3.194a.42.42 0 0 0 .097-.402c-.106-.442-.342-1.393-.389-1.587-.06-.257-.203-.312-.469-.188-1.748.814-2.84 3.37-2.84 5.424 0 4.416 3.208 8.472 9.25 8.472 4.856 0 8.63-3.461 8.63-8.086 0-4.825-3.042-8.707-7.264-8.707-1.419 0-2.752.736-3.209 1.607 0 0-.702-2.674-.872-3.328-.317-1.217-1.169-2.74-1.74-3.67A13.986 13.986 0 0 1 130.071 0c7.732 0 14 6.268 14 14s-6.268 14-14 14"/></g>
	</symbol>


	<symbol id="icon-fb" width="142.034" height="276.448" viewBox="0 0 142.034 276.448">
		<path fill="none" pointer-events="none" d="M0 0h142.034v276.448H0z"/><defs><clipPath id="a"><path d="M0 28h144.072V0H0z"/></clipPath></defs><g clip-path="url(#a)" transform="matrix(9.71734 0 0 -9.71734 -629.487 275.002)" fill="currentcolor"><path d="M13.802 27.802c-3.75 0-4.22-.016-5.691-.083-1.47-.067-2.472-.3-3.35-.642a6.75 6.75 0 0 1-2.444-1.591A6.775 6.775 0 0 1 .724 23.04c-.34-.878-.574-1.881-.641-3.35C.016 18.219 0 17.749 0 14c0-3.748.016-4.22.083-5.69.067-1.47.3-2.472.64-3.351a6.755 6.755 0 0 1 1.594-2.444A6.765 6.765 0 0 1 4.76.923C5.639.582 6.64.348 8.11.28 9.583.214 10.053.198 13.8.198c3.749 0 4.219.016 5.69.083 1.47.067 2.474.3 3.352.642a6.782 6.782 0 0 1 2.444 1.592 6.765 6.765 0 0 1 1.592 2.444c.34.879.574 1.88.642 3.35.067 1.472.082 1.943.082 5.69 0 3.75-.015 4.22-.082 5.692-.068 1.469-.301 2.472-.642 3.35a6.786 6.786 0 0 1-1.592 2.445 6.766 6.766 0 0 1-2.444 1.59c-.878.343-1.882.576-3.351.643-1.472.067-1.942.083-5.69.083m0-2.487c3.685 0 4.122-.014 5.577-.08 1.346-.061 2.076-.287 2.562-.475a4.283 4.283 0 0 0 1.588-1.033 4.297 4.297 0 0 0 1.032-1.587c.189-.486.413-1.217.476-2.563.066-1.455.08-1.891.08-5.577 0-3.685-.014-4.121-.08-5.577-.063-1.346-.287-2.076-.476-2.562a4.281 4.281 0 0 0-1.032-1.587A4.273 4.273 0 0 0 21.94 3.24c-.486-.188-1.216-.414-2.562-.474-1.455-.067-1.891-.081-5.577-.081s-4.122.014-5.577.08c-1.346.06-2.077.287-2.563.475a4.277 4.277 0 0 0-1.587 1.034A4.271 4.271 0 0 0 3.042 5.86c-.188.486-.413 1.216-.475 2.562-.066 1.456-.08 1.892-.08 5.577 0 3.686.014 4.122.08 5.577.062 1.346.287 2.077.475 2.563.25.644.55 1.104 1.033 1.587.483.483.943.782 1.587 1.033.486.188 1.217.414 2.563.475 1.455.066 1.89.08 5.577.08"/><path d="M13.802 9.4a4.601 4.601 0 1 0 0 9.202 4.601 4.601 0 0 0 0-9.203m0 11.688A7.087 7.087 0 1 1 13.8 6.913a7.087 7.087 0 0 1 .002 14.174m9.024.28a1.656 1.656 0 1 0-3.313 0 1.656 1.656 0 0 0 3.313 0M68.606 0v13.138h-3.474v4.731h3.474v4.04c0 3.175 2.052 6.091 6.78 6.091 1.915 0 3.331-.184 3.331-.184l-.11-4.417s-1.445.014-3.02.014c-1.706 0-1.98-.786-1.98-2.09v-3.454h5.134l-.223-4.731h-4.91V0zm61.466 28c-7.732 0-14-6.268-14-14 0-5.932 3.69-10.997 8.898-13.037-.123 1.107-.233 2.807.048 4.016.255 1.093 1.642 6.959 1.642 6.959s-.418.838-.418 2.079c0 1.946 1.127 3.4 2.532 3.4 1.194 0 1.772-.897 1.772-1.972 0-1.202-.765-2.998-1.16-4.662-.33-1.393.7-2.529 2.074-2.529 2.487 0 4.401 2.623 4.401 6.41 0 3.353-2.409 5.696-5.849 5.696-3.983 0-6.32-2.988-6.32-6.076 0-1.202.462-2.493 1.041-3.194a.42.42 0 0 0 .097-.402c-.106-.442-.342-1.393-.389-1.587-.06-.257-.203-.312-.469-.188-1.748.814-2.84 3.37-2.84 5.424 0 4.416 3.208 8.472 9.25 8.472 4.856 0 8.63-3.461 8.63-8.086 0-4.825-3.042-8.707-7.264-8.707-1.419 0-2.752.736-3.209 1.607 0 0-.702-2.674-.872-3.328-.317-1.217-1.169-2.74-1.74-3.67A13.986 13.986 0 0 1 130.071 0c7.732 0 14 6.268 14 14s-6.268 14-14 14"/></g>
	</symbol>


	<symbol id="icon-pinterest" width="275.126" height="276.448" viewBox="0 0 275.126 276.448">
		<path fill="none" pointer-events="none" d="M0 0h275.126v276.448H0z"/><defs><clipPath id="a"><path d="M0 28h144.072V0H0z"/></clipPath></defs><g clip-path="url(#a)" transform="matrix(9.71734 0 0 -9.71734 -1125.882 273.803)" fill="currentcolor"><path d="M13.802 27.802c-3.75 0-4.22-.016-5.691-.083-1.47-.067-2.472-.3-3.35-.642a6.75 6.75 0 0 1-2.444-1.591A6.775 6.775 0 0 1 .724 23.04c-.34-.878-.574-1.881-.641-3.35C.016 18.219 0 17.749 0 14c0-3.748.016-4.22.083-5.69.067-1.47.3-2.472.64-3.351a6.755 6.755 0 0 1 1.594-2.444A6.765 6.765 0 0 1 4.76.923C5.639.582 6.64.348 8.11.28 9.583.214 10.053.198 13.8.198c3.749 0 4.219.016 5.69.083 1.47.067 2.474.3 3.352.642a6.782 6.782 0 0 1 2.444 1.592 6.765 6.765 0 0 1 1.592 2.444c.34.879.574 1.88.642 3.35.067 1.472.082 1.943.082 5.69 0 3.75-.015 4.22-.082 5.692-.068 1.469-.301 2.472-.642 3.35a6.786 6.786 0 0 1-1.592 2.445 6.766 6.766 0 0 1-2.444 1.59c-.878.343-1.882.576-3.351.643-1.472.067-1.942.083-5.69.083m0-2.487c3.685 0 4.122-.014 5.577-.08 1.346-.061 2.076-.287 2.562-.475a4.283 4.283 0 0 0 1.588-1.033 4.297 4.297 0 0 0 1.032-1.587c.189-.486.413-1.217.476-2.563.066-1.455.08-1.891.08-5.577 0-3.685-.014-4.121-.08-5.577-.063-1.346-.287-2.076-.476-2.562a4.281 4.281 0 0 0-1.032-1.587A4.273 4.273 0 0 0 21.94 3.24c-.486-.188-1.216-.414-2.562-.474-1.455-.067-1.891-.081-5.577-.081s-4.122.014-5.577.08c-1.346.06-2.077.287-2.563.475a4.277 4.277 0 0 0-1.587 1.034A4.271 4.271 0 0 0 3.042 5.86c-.188.486-.413 1.216-.475 2.562-.066 1.456-.08 1.892-.08 5.577 0 3.686.014 4.122.08 5.577.062 1.346.287 2.077.475 2.563.25.644.55 1.104 1.033 1.587.483.483.943.782 1.587 1.033.486.188 1.217.414 2.563.475 1.455.066 1.89.08 5.577.08"/><path d="M13.802 9.4a4.601 4.601 0 1 0 0 9.202 4.601 4.601 0 0 0 0-9.203m0 11.688A7.087 7.087 0 1 1 13.8 6.913a7.087 7.087 0 0 1 .002 14.174m9.024.28a1.656 1.656 0 1 0-3.313 0 1.656 1.656 0 0 0 3.313 0M68.606 0v13.138h-3.474v4.731h3.474v4.04c0 3.175 2.052 6.091 6.78 6.091 1.915 0 3.331-.184 3.331-.184l-.11-4.417s-1.445.014-3.02.014c-1.706 0-1.98-.786-1.98-2.09v-3.454h5.134l-.223-4.731h-4.91V0zm61.466 28c-7.732 0-14-6.268-14-14 0-5.932 3.69-10.997 8.898-13.037-.123 1.107-.233 2.807.048 4.016.255 1.093 1.642 6.959 1.642 6.959s-.418.838-.418 2.079c0 1.946 1.127 3.4 2.532 3.4 1.194 0 1.772-.897 1.772-1.972 0-1.202-.765-2.998-1.16-4.662-.33-1.393.7-2.529 2.074-2.529 2.487 0 4.401 2.623 4.401 6.41 0 3.353-2.409 5.696-5.849 5.696-3.983 0-6.32-2.988-6.32-6.076 0-1.202.462-2.493 1.041-3.194a.42.42 0 0 0 .097-.402c-.106-.442-.342-1.393-.389-1.587-.06-.257-.203-.312-.469-.188-1.748.814-2.84 3.37-2.84 5.424 0 4.416 3.208 8.472 9.25 8.472 4.856 0 8.63-3.461 8.63-8.086 0-4.825-3.042-8.707-7.264-8.707-1.419 0-2.752.736-3.209 1.607 0 0-.702-2.674-.872-3.328-.317-1.217-1.169-2.74-1.74-3.67A13.986 13.986 0 0 1 130.071 0c7.732 0 14 6.268 14 14s-6.268 14-14 14"/></g>
	</symbol>

	<symbol id="icon-phone" width="47.04" height="47.04" viewBox="0 0 47.04 47.04">
		<path d="M12.693 18.698a28.547 28.547 0 002.41 3.324c.421.5.873 1.083 1.326 1.542.462.467.89 1.038 1.366 1.501.473.46.928.997 1.4 1.468.477.477.961.952 1.434 1.433l1.466 1.4c1.155 1.074 3.44 3.08 4.686 3.952l1.272.853c.223.135.248.23.477.095l3.66-2.076c.55-.31 1.307-.786 1.88-1 .953-.355 1.34-.019 2.07.496.55.389 1.184.77 1.754 1.145l5.174 3.428c.283.192.544.4.84.573.313.182.637.327.801.673.344.73-.257 1.44-.675 1.973-1.117 1.423-2.792 3.397-4.145 4.491-.638.516-1.046.903-1.921.881-2.072-.052-4.773-1.135-6.59-2.029-2.422-1.19-4.898-2.816-7.025-4.478a91.93 91.93 0 01-11.86-11.113c-3.604-4.027-7.243-8.675-9.234-13.738-.482-1.224-1.129-3.355-1.065-4.649.036-.725.537-1.31.997-1.839 1.373-1.577 2.87-2.8 4.496-4.107.538-.432 1.322-.957 2.005-.472.287.204.43.557.614.848.183.29.4.57.591.86l3.421 5.18c.358.553.75 1.21 1.134 1.73.554.748.726 1.192.32 2.102-.27.605-.68 1.27-1.01 1.854-.68 1.207-1.449 2.473-2.07 3.699zm15.754 13.123c-.574-.303-1.386-.98-1.904-1.402-2.562-2.08-4.473-4.11-6.791-6.433-.354-.355-1.311-1.349-1.599-1.708-.48-.598-1.035-1.17-1.528-1.777-.424-.522-1.098-1.326-1.402-1.904.64-1.155 1.298-2.3 1.946-3.452.695-1.238 1.474-2.708.814-4.136-.252-.547-3.86-5.915-4.278-6.546-.702-1.059-1.412-2.224-2.157-3.24C10.604-.066 9.035-.25 7.633.382c-1.525.687-4.704 3.67-5.88 4.98-.428.474-.832.982-1.185 1.515-.481.727-.567 1.287-.526 2.154.192 4.036 2.425 8.384 4.596 11.682 4.98 7.564 14.113 16.674 21.67 21.679 3.268 2.165 7.662 4.409 11.67 4.607.85.041 1.446-.04 2.162-.518.539-.36 1.054-.763 1.534-1.198 1.29-1.168 4.28-4.36 4.968-5.856.632-1.371.483-2.96-.787-3.9-1.018-.753-2.192-1.467-3.254-2.176l-4.871-3.225c-.493-.327-1.157-.81-1.676-1.053-1.435-.67-2.89.081-4.14.783-1.157.651-2.309 1.314-3.467 1.964" fill-rule="evenodd"/>
	</symbol>

</svg>